<svg width="16" height="16" viewBox="0 0 16 16" fill="none" xmlns="http://www.w3.org/2000/svg">
<path d="M9.81251 1.23859C6.07814 0.23859 2.23985 2.45406 1.23939 6.18828C0.238917 9.9225 2.45407 13.7609 6.18829 14.7614C9.92251 15.7619 13.7609 13.5459 14.7614 9.8125C15.7619 6.07906 13.5459 2.23906 9.81251 1.23859ZM8.00001 3.25C8.11126 3.25 8.22002 3.28299 8.31252 3.34479C8.40502 3.4066 8.47712 3.49445 8.51969 3.59724C8.56227 3.70002 8.57341 3.81312 8.5517 3.92224C8.53 4.03135 8.47643 4.13158 8.39776 4.21024C8.31909 4.28891 8.21886 4.34248 8.10975 4.36419C8.00063 4.38589 7.88753 4.37475 7.78475 4.33218C7.68197 4.2896 7.59412 4.21751 7.53231 4.125C7.4705 4.0325 7.43751 3.92375 7.43751 3.8125C7.43751 3.66331 7.49677 3.52024 7.60226 3.41475C7.70775 3.30926 7.85083 3.25 8.00001 3.25ZM9.04485 6.27406L7.63548 11.5339C7.83619 11.5034 8.02794 11.4298 8.19762 11.3184C8.3673 11.2069 8.5109 11.0601 8.6186 10.888C8.63991 10.8519 8.67353 10.8246 8.71328 10.8113C8.75303 10.798 8.79626 10.7995 8.83502 10.8154C8.87379 10.8314 8.90549 10.8608 8.92432 10.8983C8.94314 10.9357 8.94783 10.9787 8.93751 11.0194L8.83689 11.3944C8.72106 11.8267 8.43825 12.1953 8.05066 12.419C7.66308 12.6428 7.20247 12.7035 6.77017 12.5877C6.62609 12.549 6.50325 12.4547 6.42868 12.3255C6.3541 12.1964 6.3339 12.0428 6.37251 11.8987L7.78189 6.6389C7.58119 6.66948 7.38945 6.74302 7.21978 6.8545C7.05011 6.96598 6.9065 7.11277 6.79876 7.28484C6.77766 7.32139 6.74402 7.34903 6.70408 7.36265C6.66414 7.37626 6.62061 7.37491 6.58159 7.35886C6.54256 7.3428 6.51069 7.31313 6.49189 7.27535C6.4731 7.23756 6.46865 7.19425 6.47939 7.15343L6.58001 6.77843C6.69584 6.34613 6.97865 5.97755 7.36624 5.75377C7.75382 5.52998 8.21443 5.46933 8.64673 5.58515C8.71811 5.60423 8.78504 5.63719 8.84368 5.68214C8.90233 5.72709 8.95154 5.78315 8.98851 5.84713C9.02549 5.9111 9.04949 5.98173 9.05916 6.05499C9.06882 6.12824 9.06396 6.20268 9.04485 6.27406Z" fill="url(#paint0_linear_452_509)"/>
<defs>
<linearGradient id="paint0_linear_452_509" x1="0.999115" y1="8.00008" x2="15.0016" y2="8.00008" gradientUnits="userSpaceOnUse">
<stop stop-color="#C9BFFF"/>
<stop offset="1" stop-color="#AC9DFB"/>
</linearGradient>
</defs>
</svg>
