<svg width="14" height="15" viewBox="0 0 14 15" fill="none" xmlns="http://www.w3.org/2000/svg">
<path d="M7.00008 1.96667C10.2217 1.96667 12.8334 4.5784 12.8334 7.80001C12.8334 11.0216 10.2217 13.6333 7.00008 13.6333C3.77848 13.6333 1.16675 11.0216 1.16675 7.80001C1.16675 4.5784 3.77848 1.96667 7.00008 1.96667ZM9.49675 6.03207C9.45609 5.99147 9.40784 5.95927 9.35474 5.93731C9.30164 5.91536 9.24473 5.90408 9.18727 5.90412C9.12981 5.90416 9.07292 5.91552 9.01986 5.93755C8.96679 5.95958 8.91858 5.99185 8.87798 6.03251L6.27441 8.64001L5.12131 7.49172C5.03888 7.4109 4.92786 7.36594 4.81242 7.36663C4.69699 7.36732 4.58651 7.4136 4.50505 7.49538C4.42359 7.57717 4.37775 7.68784 4.37753 7.80327C4.3773 7.91871 4.42271 8.02955 4.50385 8.11165L5.96656 9.56838C6.04871 9.6502 6.15997 9.69606 6.27591 9.69589C6.39185 9.69573 6.50298 9.64955 6.58489 9.56751L9.49719 6.65084C9.53779 6.61019 9.56999 6.56193 9.59194 6.50883C9.6139 6.45573 9.62518 6.39882 9.62513 6.34137C9.62509 6.28391 9.61373 6.22702 9.59171 6.17395C9.56968 6.12088 9.53741 6.07267 9.49675 6.03207Z" fill="url(#paint0_linear_452_647)"/>
<defs>
<linearGradient id="paint0_linear_452_647" x1="1.16675" y1="7.80001" x2="12.8334" y2="7.80001" gradientUnits="userSpaceOnUse">
<stop stop-color="#CCCDDE"/>
<stop offset="1" stop-color="#6E6F78"/>
</linearGradient>
</defs>
</svg>
