<svg width="21" height="20" viewBox="0 0 21 20" fill="none" xmlns="http://www.w3.org/2000/svg">
<path d="M6.14292 7.69547C6.04079 7.89997 5.80216 8.00209 5.59568 7.93412C5.39118 7.83199 5.28905 7.59336 5.39118 7.38688C5.52743 7.11438 5.66368 6.80548 5.83435 6.56684C6.00472 6.29434 6.20925 6.05571 6.41575 5.84919C6.62028 5.61054 6.89277 5.44017 7.1334 5.26779C7.4059 5.09742 7.68065 4.96117 7.95344 4.82462C8.15793 4.7225 8.39661 4.82462 8.50068 5.06328C8.60281 5.26777 8.50068 5.50644 8.29615 5.60856C8.0575 5.71068 7.81914 5.81309 7.61266 5.98346C7.40816 6.11971 7.20363 6.29008 6.99713 6.46047C6.82676 6.63085 6.65637 6.83538 6.52012 7.076C6.34747 7.25258 6.24507 7.45711 6.14297 7.69549L6.14292 7.69547ZM15.5647 14.0464L18.5357 17.0174C18.8082 17.2899 18.8082 17.7351 18.5357 18.0078C18.2632 18.2806 17.818 18.2803 17.5794 18.0078L14.6084 15.0366C14.027 15.5136 13.3796 15.9246 12.6959 16.1974C11.8079 16.5723 10.8516 16.7788 9.82731 16.7788C8.80303 16.7788 7.84676 16.5742 6.95873 16.1974C6.03659 15.8225 5.21655 15.2752 4.53502 14.5576C3.85153 13.8741 3.30623 13.056 2.89721 12.1339V12.0997C2.55644 11.2117 2.35193 10.2554 2.35193 9.26502C2.35193 8.24075 2.55642 7.28448 2.89721 6.39645C3.27211 5.47431 3.81935 4.65427 4.53502 3.97274C5.90034 2.60743 7.77848 1.78768 9.82732 1.78768C10.8177 1.78768 11.8079 1.99218 12.6959 2.36908C13.618 2.74399 14.4381 3.29123 15.1196 4.00888L15.1537 4.043C15.8372 4.7265 16.3825 5.54457 16.7574 6.4326L16.7915 6.46672C17.1323 7.35474 17.3388 8.31101 17.3388 9.30142C17.3388 10.3257 17.1343 11.282 16.7574 12.17C16.4527 12.8177 16.044 13.4651 15.5647 14.0464ZM12.1509 3.63225C11.4332 3.32562 10.6493 3.15523 9.82956 3.15523C8.12152 3.15523 6.61994 3.83873 5.49357 4.93128C4.91217 5.51269 4.46929 6.16007 4.16237 6.91183C3.88987 7.66362 3.71921 8.4475 3.71921 9.2673C3.71921 10.0871 3.88958 10.871 4.16237 11.5548V11.5889C4.469 12.3407 4.91417 12.988 5.49357 13.5694C6.04081 14.1147 6.72236 14.5937 7.47411 14.9006C8.19176 15.1731 8.97568 15.3438 9.79542 15.3438C10.6155 15.3438 11.3991 15.1734 12.1167 14.9006C12.8685 14.594 13.55 14.1488 14.0973 13.5694C14.6445 13.0222 15.1216 12.3406 15.4285 11.5889C15.7351 10.8712 15.9055 10.0873 15.9055 9.26757C15.9055 8.44783 15.7351 7.66388 15.4623 6.98011L15.4282 6.94599C15.1216 6.22834 14.6764 5.54683 14.1311 4.99956L14.097 4.96544C13.5842 4.38404 12.9026 3.94089 12.1509 3.63229V3.63225ZM13.8589 9.26728C13.8589 9.02863 14.0293 8.85825 14.268 8.85825C14.5066 8.85825 14.677 9.02863 14.677 9.26728C14.677 9.8828 14.5407 10.5302 14.3021 11.1116C14.0634 11.693 13.7207 12.2041 13.2437 12.6472C12.8005 13.0904 12.2533 13.4673 11.6742 13.7056C11.0928 13.9443 10.4454 14.0805 9.82987 14.0805C9.59122 14.0805 9.42085 13.8761 9.42085 13.6715C9.42085 13.4329 9.59122 13.2625 9.82987 13.2625C10.341 13.2625 10.8883 13.1604 11.3656 12.9559C11.8429 12.7514 12.2877 12.4789 12.6626 12.102C13.0375 11.7271 13.3461 11.2819 13.5165 10.8049V10.7708C13.7566 10.3257 13.859 9.81256 13.859 9.26726L13.8589 9.26728Z" fill="black"/>
</svg>
