<svg width="15" height="15" viewBox="0 0 15 15" fill="none" xmlns="http://www.w3.org/2000/svg">
<path d="M7.50008 1.96667C10.7217 1.96667 13.3334 4.5784 13.3334 7.80001C13.3334 11.0216 10.7217 13.6333 7.50008 13.6333C4.27848 13.6333 1.66675 11.0216 1.66675 7.80001C1.66675 4.5784 4.27848 1.96667 7.50008 1.96667ZM6.31781 6.02667C6.27912 5.98734 6.23302 5.95606 6.18217 5.93463C6.13133 5.9132 6.07674 5.90206 6.02157 5.90183C5.96639 5.9016 5.91172 5.9123 5.8607 5.93331C5.80968 5.95432 5.76333 5.98523 5.72432 6.02424C5.6853 6.06326 5.6544 6.10961 5.63339 6.16063C5.61238 6.21165 5.60168 6.26632 5.6019 6.3215C5.60213 6.37667 5.61328 6.43126 5.6347 6.4821C5.65613 6.53294 5.68741 6.57904 5.72675 6.61774L6.90902 7.80001L5.72675 8.98228C5.68741 9.02097 5.65613 9.06707 5.6347 9.11792C5.61328 9.16876 5.60213 9.22335 5.6019 9.27852C5.60168 9.33369 5.61238 9.38837 5.63339 9.43939C5.6544 9.49041 5.6853 9.53676 5.72432 9.57577C5.76333 9.61479 5.80968 9.64569 5.8607 9.6667C5.91172 9.68771 5.96639 9.69841 6.02157 9.69819C6.07674 9.69796 6.13133 9.68681 6.18217 9.66539C6.23302 9.64396 6.27912 9.61268 6.31781 9.57334L7.50008 8.39107L8.68235 9.57334C8.72105 9.61268 8.76715 9.64396 8.81799 9.66539C8.86883 9.68681 8.92342 9.69796 8.97859 9.69819C9.03377 9.69841 9.08844 9.68771 9.13946 9.6667C9.19048 9.64569 9.23683 9.61479 9.27585 9.57577C9.31486 9.53676 9.34577 9.49041 9.36678 9.43939C9.38779 9.38837 9.39849 9.33369 9.39826 9.27852C9.39804 9.22335 9.38689 9.16876 9.36546 9.11792C9.34403 9.06707 9.31275 9.02097 9.27342 8.98228L8.09114 7.80001L9.27342 6.61774C9.31275 6.57904 9.34403 6.53294 9.36546 6.4821C9.38689 6.43126 9.39804 6.37667 9.39826 6.3215C9.39849 6.26632 9.38779 6.21165 9.36678 6.16063C9.34577 6.10961 9.31486 6.06326 9.27585 6.02424C9.23683 5.98523 9.19048 5.95432 9.13946 5.93331C9.08844 5.9123 9.03377 5.9016 8.97859 5.90183C8.92342 5.90206 8.86883 5.9132 8.81799 5.93463C8.76715 5.95606 8.72105 5.98734 8.68235 6.02667L7.50008 7.20895L6.31781 6.02667Z" fill="#FF0000"/>
</svg>
