<svg width="31" height="30" viewBox="0 0 31 30" fill="none" xmlns="http://www.w3.org/2000/svg">
<rect x="0.5" width="30" height="30" rx="15" fill="url(#paint0_linear_70_1416)" fill-opacity="0.05"/>
<path d="M20.9772 10.0028C19.9409 9.52709 18.8465 9.18994 17.7222 9C17.579 9.24675 17.42 9.58125 17.3082 9.84375C16.1126 9.66867 14.8979 9.66867 13.7022 9.84375C13.5905 9.58125 13.4225 9.24675 13.2875 9C12.1622 9.1877 11.067 9.52494 10.031 10.0028C7.97073 13.0433 7.41348 16.0125 7.69248 18.9412C8.89968 19.8276 10.2482 20.5031 11.681 20.9392C12.0028 20.5048 12.2878 20.0442 12.533 19.5622C12.0627 19.3867 11.618 19.1722 11.1875 18.9172C11.2992 18.8378 11.4102 18.75 11.5137 18.6622C14.1087 19.8487 16.919 19.8487 19.4817 18.6622C19.5935 18.75 19.697 18.8378 19.808 18.9172C19.3782 19.1722 18.9327 19.3867 18.4632 19.5622C18.7081 20.0442 18.9929 20.5048 19.3145 20.9392C20.7477 20.5044 22.0965 19.8288 23.303 18.9412C23.6457 15.5512 22.7615 12.6052 20.978 10.0028H20.9772ZM12.89 17.1345C12.11 17.1345 11.4732 16.4257 11.4732 15.5588C11.4732 14.691 12.0942 13.9822 12.8907 13.9822C13.6782 13.9822 14.3232 14.691 14.3067 15.5588C14.3067 16.4257 13.6782 17.1337 12.89 17.1337V17.1345ZM18.1205 17.1345C17.3405 17.1345 16.703 16.4257 16.703 15.5588C16.703 14.691 17.324 13.9822 18.1205 13.9822C18.908 13.9822 19.553 14.691 19.5372 15.5588C19.5372 16.4257 18.9162 17.1337 18.1197 17.1337L18.1205 17.1345Z" fill="url(#paint1_linear_70_1416)"/>
<defs>
<linearGradient id="paint0_linear_70_1416" x1="5.58753" y1="4.63107" x2="34.5339" y2="14.4827" gradientUnits="userSpaceOnUse">
<stop stop-color="#D9D9D9"/>
<stop offset="1" stop-color="#737373" stop-opacity="0.8"/>
</linearGradient>
<linearGradient id="paint1_linear_70_1416" x1="7.62549" y1="14.9696" x2="23.3757" y2="14.9696" gradientUnits="userSpaceOnUse">
<stop stop-color="#CCCDDE"/>
<stop offset="1" stop-color="#6E6F78"/>
</linearGradient>
</defs>
</svg>
