<svg width="31" height="30" viewBox="0 0 31 30" fill="none" xmlns="http://www.w3.org/2000/svg">
<rect x="0.5" width="30" height="30" rx="15" fill="url(#paint0_linear_70_1419)" fill-opacity="0.05"/>
<path d="M15.5 6.75006C13.3351 6.72806 11.25 7.56651 9.70305 9.08115C8.15606 10.5958 7.27375 12.6627 7.25 14.8276C7.25834 16.5384 7.80871 18.2026 8.82205 19.5812C9.83539 20.9597 11.2596 21.9816 12.89 22.5001C13.3025 22.5751 13.4525 22.3276 13.4525 22.1101V20.7376C11.1575 21.2251 10.67 19.6576 10.67 19.6576C10.5172 19.1655 10.1924 18.7448 9.755 18.4726C9.005 17.9776 9.815 17.9851 9.815 17.9851C10.0742 18.0197 10.3223 18.1126 10.5405 18.2568C10.7587 18.401 10.9414 18.5927 11.075 18.8176C11.3077 19.2211 11.6897 19.5172 12.1385 19.6421C12.5874 19.7669 13.0673 19.7105 13.475 19.4851C13.5169 19.0743 13.7029 18.6917 14 18.4051C12.17 18.2026 10.25 17.5126 10.25 14.4151C10.2336 13.6071 10.5322 12.8244 11.0825 12.2326C10.8319 11.5389 10.8615 10.7748 11.165 10.1026C11.165 10.1026 11.8625 9.88506 13.415 10.9276C14.7664 10.5674 16.1886 10.5674 17.54 10.9276C19.115 9.88506 19.79 10.1026 19.79 10.1026C20.0935 10.7748 20.1231 11.5389 19.8725 12.2326C20.4356 12.8135 20.7503 13.591 20.75 14.4001C20.75 17.5051 18.815 18.1876 17 18.3901C17.1987 18.583 17.3523 18.8176 17.4495 19.077C17.5468 19.3363 17.5854 19.614 17.5625 19.8901V22.1026C17.5625 22.3651 17.7125 22.5751 18.125 22.4926C19.7508 21.9709 21.1702 20.9487 22.1804 19.5722C23.1906 18.1956 23.74 16.535 23.75 14.8276C23.7263 12.6627 22.8439 10.5958 21.297 9.08115C19.75 7.56651 17.6649 6.72806 15.5 6.75006Z" fill="url(#paint1_linear_70_1419)"/>
<defs>
<linearGradient id="paint0_linear_70_1419" x1="5.58753" y1="4.63107" x2="34.5339" y2="14.4827" gradientUnits="userSpaceOnUse">
<stop stop-color="#D9D9D9"/>
<stop offset="1" stop-color="#737373" stop-opacity="0.8"/>
</linearGradient>
<linearGradient id="paint1_linear_70_1419" x1="7.25" y1="14.6317" x2="23.75" y2="14.6317" gradientUnits="userSpaceOnUse">
<stop stop-color="#CCCDDE"/>
<stop offset="1" stop-color="#6E6F78"/>
</linearGradient>
</defs>
</svg>
