<svg width="122" height="36" viewBox="0 0 122 36" fill="none" xmlns="http://www.w3.org/2000/svg">
<path d="M30 33H0V3H14.667V24.333H21.333V3H30V33Z" fill="#8B2EF9"/>
<path d="M42.1 24V21.338H44.08V11.306H42.1V8.644H49.404V11.306H47.424V21.338H49.404V24H42.1ZM56.8761 16.74L55.4021 13.66H55.3361V24H52.1901V8.644H55.8421L60.0441 15.904L61.5181 18.984H61.5841V8.644H64.7301V24H61.0781L56.8761 16.74ZM67.516 24V21.338H69.496V11.306H67.516V8.644H74.82V11.306H72.84V21.338H74.82V24H67.516ZM77.6061 24V8.644H84.8661C85.5848 8.644 86.2301 8.76867 86.8021 9.018C87.3741 9.25267 87.8581 9.58267 88.2541 10.008C88.6648 10.4333 88.9801 10.954 89.2001 11.57C89.4201 12.1713 89.5301 12.8313 89.5301 13.55C89.5301 14.2833 89.4201 14.9507 89.2001 15.552C88.9801 16.1533 88.6648 16.6667 88.2541 17.092C87.8581 17.5173 87.3741 17.8547 86.8021 18.104C86.2301 18.3387 85.5848 18.456 84.8661 18.456H80.9501V24H77.6061ZM80.9501 15.552H84.4701C84.9688 15.552 85.3574 15.4273 85.6361 15.178C85.9294 14.914 86.0761 14.5327 86.0761 14.034V13.066C86.0761 12.5673 85.9294 12.1933 85.6361 11.944C85.3574 11.68 84.9688 11.548 84.4701 11.548H80.9501V15.552ZM96.1239 24.264C95.2733 24.264 94.5106 24.1247 93.8359 23.846C93.1759 23.5673 92.6113 23.164 92.1419 22.636C91.6873 22.108 91.3353 21.47 91.0859 20.722C90.8366 19.974 90.7119 19.138 90.7119 18.214C90.7119 17.29 90.8366 16.454 91.0859 15.706C91.3353 14.958 91.6873 14.3273 92.1419 13.814C92.6113 13.286 93.1759 12.8827 93.8359 12.604C94.5106 12.3253 95.2733 12.186 96.1239 12.186C96.9746 12.186 97.7299 12.3253 98.3899 12.604C99.0646 12.8827 99.6293 13.286 100.084 13.814C100.553 14.3273 100.913 14.958 101.162 15.706C101.411 16.454 101.536 17.29 101.536 18.214C101.536 19.138 101.411 19.974 101.162 20.722C100.913 21.47 100.553 22.108 100.084 22.636C99.6293 23.164 99.0646 23.5673 98.3899 23.846C97.7299 24.1247 96.9746 24.264 96.1239 24.264ZM96.1239 21.69C96.7693 21.69 97.2679 21.492 97.6199 21.096C97.9719 20.7 98.1479 20.1353 98.1479 19.402V17.048C98.1479 16.3147 97.9719 15.75 97.6199 15.354C97.2679 14.958 96.7693 14.76 96.1239 14.76C95.4786 14.76 94.9799 14.958 94.6279 15.354C94.2759 15.75 94.0999 16.3147 94.0999 17.048V19.402C94.0999 20.1353 94.2759 20.7 94.6279 21.096C94.9799 21.492 95.4786 21.69 96.1239 21.69ZM108.542 24.264C107.691 24.264 106.929 24.1247 106.254 23.846C105.594 23.5673 105.029 23.164 104.56 22.636C104.105 22.108 103.753 21.47 103.504 20.722C103.255 19.974 103.13 19.138 103.13 18.214C103.13 17.29 103.255 16.454 103.504 15.706C103.753 14.958 104.105 14.3273 104.56 13.814C105.029 13.286 105.594 12.8827 106.254 12.604C106.929 12.3253 107.691 12.186 108.542 12.186C109.393 12.186 110.148 12.3253 110.808 12.604C111.483 12.8827 112.047 13.286 112.502 13.814C112.971 14.3273 113.331 14.958 113.58 15.706C113.829 16.454 113.954 17.29 113.954 18.214C113.954 19.138 113.829 19.974 113.58 20.722C113.331 21.47 112.971 22.108 112.502 22.636C112.047 23.164 111.483 23.5673 110.808 23.846C110.148 24.1247 109.393 24.264 108.542 24.264ZM108.542 21.69C109.187 21.69 109.686 21.492 110.038 21.096C110.39 20.7 110.566 20.1353 110.566 19.402V17.048C110.566 16.3147 110.39 15.75 110.038 15.354C109.686 14.958 109.187 14.76 108.542 14.76C107.897 14.76 107.398 14.958 107.046 15.354C106.694 15.75 106.518 16.3147 106.518 17.048V19.402C106.518 20.1353 106.694 20.7 107.046 21.096C107.398 21.492 107.897 21.69 108.542 21.69ZM119.508 24C118.393 24 117.572 23.7287 117.044 23.186C116.531 22.6433 116.274 21.8587 116.274 20.832V7.72H119.53V21.47H120.982V24H119.508Z" fill="white"/>
</svg>
