<svg width="31" height="30" viewBox="0 0 31 30" fill="none" xmlns="http://www.w3.org/2000/svg">
<rect x="0.5" width="30" height="30" rx="15" fill="url(#paint0_linear_70_1422)" fill-opacity="0.05"/>
<g clip-path="url(#clip0_70_1422)">
<path d="M18.116 18.6697L19.4286 12.4823C19.5446 11.9377 19.232 11.7234 18.8749 11.8571L11.1606 14.8303C10.6337 15.0354 10.6429 15.3303 11.0714 15.464L13.0446 16.08L17.6251 13.196C17.8394 13.0531 18.036 13.1337 17.8754 13.2766L14.1703 16.6246L14.0274 18.6606C14.2326 18.6606 14.3223 18.5714 14.4291 18.464L15.3931 17.5354L17.3931 19.0086C17.7594 19.2137 18.0183 19.1069 18.1166 18.6691L18.116 18.6697ZM23.5 15C23.5 19.4194 19.9194 23 15.5 23C11.0806 23 7.5 19.4194 7.5 15C7.5 10.5806 11.0806 7 15.5 7C19.9194 7 23.5 10.5806 23.5 15Z" fill="url(#paint1_linear_70_1422)"/>
</g>
<defs>
<linearGradient id="paint0_linear_70_1422" x1="5.58753" y1="4.63107" x2="34.5339" y2="14.4827" gradientUnits="userSpaceOnUse">
<stop stop-color="#D9D9D9"/>
<stop offset="1" stop-color="#737373" stop-opacity="0.8"/>
</linearGradient>
<linearGradient id="paint1_linear_70_1422" x1="7.5" y1="15" x2="23.5" y2="15" gradientUnits="userSpaceOnUse">
<stop stop-color="#CCCDDE"/>
<stop offset="1" stop-color="#6E6F78"/>
</linearGradient>
<clipPath id="clip0_70_1422">
<rect width="16" height="16" fill="white" transform="translate(7.5 7)"/>
</clipPath>
</defs>
</svg>
